<?xml version="1.0" encoding="utf-8"?>
<!-- Generator: Adobe Illustrator 28.0.0, SVG Export Plug-In . SVG Version: 6.00 Build 0)  -->
<svg version="1.1" id="圖層_1" xmlns="http://www.w3.org/2000/svg" xmlns:xlink="http://www.w3.org/1999/xlink" x="0px" y="0px"
	 viewBox="0 0 14 16" style="enable-background:new 0 0 14 16;" xml:space="preserve">
<style type="text/css">
	.st0{fill:#FFFFFF;}
</style>
<g>
	<path class="st0" d="M14,15c0,0.5-0.5,1-1,1H1c-0.5,0-1-0.5-1-1v-1c0-0.6,0.5-1,1-1h12c0.5,0,1,0.4,1,1V15z"/>
	<path class="st0" d="M12.5,6H9V1c0-0.6-0.5-1-1-1H6C5.5,0,5,0.4,5,1v5H1.5C1.2,6,1.2,6.1,1.4,6.3l5.2,4.4c0.2,0.2,0.6,0.2,0.8,0
		l5.2-4.4C12.8,6.1,12.8,6,12.5,6z"/>
</g>
</svg>
